<svg width="500" height="500" viewBox="0 0 500 500" fill="none" xmlns="http://www.w3.org/2000/svg">
<path d="M184.124 64.1698C181.743 55.284 172.61 50.0108 163.724 52.3917C154.838 54.7727 149.565 63.9062 151.946 72.792L163.317 115.23C165.698 124.115 174.831 129.389 183.717 127.008C192.603 124.627 197.876 115.493 195.495 106.607L184.124 64.1698Z" fill="#3B82F6"/>
<path d="M75.0316 138.12C67.0865 133.483 56.8866 136.165 52.2497 144.11C47.6127 152.055 50.2945 162.255 58.2396 166.892L98.2988 190.272C106.244 194.909 116.444 192.227 121.081 184.282C125.718 176.337 123.036 166.137 115.091 161.5L75.0316 138.12Z" fill="#3B82F6"/>
<path d="M312.326 98.81C316.888 90.8217 314.111 80.6475 306.122 76.0853C298.134 71.5231 287.96 74.3005 283.398 82.2888L260.395 122.566C255.833 130.554 258.61 140.728 266.599 145.29C274.587 149.853 284.761 147.075 289.323 139.087L312.326 98.81Z" fill="#3B82F6"/>
<path d="M229.427 215.196C205.137 212.417 190.203 239.877 204.154 258.965L334.152 436.829C349.021 457.173 381.021 448.607 383.737 423.554L392.836 339.647L460.128 289.756C480.232 274.851 471.667 242.911 446.801 240.066L229.427 215.196Z" fill="#3B82F6"/>
<path d="M83.0848 255.936L41.0437 267.201C32.1578 269.582 26.8846 278.716 29.2655 287.602C31.6465 296.487 40.7801 301.761 49.6659 299.38L91.707 288.115C100.593 285.734 105.866 276.6 103.485 267.715C101.104 258.829 91.9706 253.555 83.0848 255.936Z" fill="#3B82F6"/>
<path d="M166.643 353.896C171.206 345.908 168.428 335.734 160.44 331.172C152.451 326.609 142.277 329.387 137.715 337.375L114.713 377.652C110.15 385.64 112.928 395.814 120.916 400.377C128.904 404.939 139.079 402.162 143.641 394.173L166.643 353.896Z" fill="#3B82F6"/>
</svg>
