<svg width="490" height="68" viewBox="0 0 490 68" fill="none" xmlns="http://www.w3.org/2000/svg">
<g clip-path="url(#clip0_4689_132)">
<path d="M26.3678 2.09507C25.9638 0.587646 24.4144 -0.306928 22.907 0.0969852C21.3995 0.500899 20.505 2.05035 20.9089 3.55778L22.8379 10.757C23.2418 12.2645 24.7913 13.159 26.2987 12.7551C27.8061 12.3512 28.7007 10.8018 28.2968 9.29433L26.3678 2.09507Z" fill="#3B82F6"/>
<path d="M7.86092 14.6403C6.51307 13.8537 4.78273 14.3086 3.9961 15.6565C3.20946 17.0043 3.66441 18.7346 5.01226 19.5213L11.808 23.4875C13.1559 24.2741 14.8862 23.8191 15.6729 22.4713C16.4595 21.1235 16.0046 19.3931 14.6567 18.6065L7.86092 14.6403Z" fill="#3B82F6"/>
<path d="M48.1164 7.97156C48.8903 6.61639 48.4192 4.8904 47.064 4.11645C45.7088 3.3425 43.9828 3.81367 43.2089 5.16884L39.3067 12.0015C38.5327 13.3567 39.0039 15.0827 40.359 15.8567C41.7142 16.6306 43.4402 16.1594 44.2142 14.8043L48.1164 7.97156Z" fill="#3B82F6"/>
<path d="M34.0532 27.7157C29.9325 27.2442 27.399 31.9027 29.7657 35.1408L51.819 65.3143C54.3415 68.7656 59.7701 67.3125 60.2309 63.0624L61.7745 48.8281L73.1901 40.3644C76.6006 37.8358 75.1476 32.4175 70.9293 31.9348L34.0532 27.7157Z" fill="#3B82F6"/>
<path d="M9.22708 34.6271L2.09507 36.5381C0.587645 36.942 -0.306928 38.4915 0.0969857 39.9989C0.500899 41.5063 2.05035 42.4009 3.55778 41.997L10.6898 40.086C12.1972 39.682 13.0918 38.1326 12.6879 36.6252C12.284 35.1177 10.7345 34.2232 9.22708 34.6271Z" fill="#3B82F6"/>
<path d="M23.4023 51.2454C24.1762 49.8902 23.705 48.1642 22.3499 47.3903C20.9947 46.6163 19.2687 47.0875 18.4948 48.4426L14.5925 55.2754C13.8186 56.6305 14.2898 58.3565 15.6449 59.1305C17.0001 59.9044 18.7261 59.4332 19.5 58.0781L23.4023 51.2454Z" fill="#3B82F6"/>
<path d="M477.883 49.7415C475.265 49.7415 473.021 49.3675 471.151 48.6195C469.315 47.8375 467.887 46.7495 466.867 45.3555C465.881 43.9615 465.32 42.3635 465.184 40.5615L471.865 40.2555C472.103 41.7175 472.698 42.8395 473.65 43.6215C474.636 44.3695 476.047 44.7435 477.883 44.7435C479.447 44.7435 480.654 44.5055 481.504 44.0295C482.354 43.5195 482.779 42.7375 482.779 41.6835C482.779 41.0715 482.626 40.5615 482.32 40.1535C482.014 39.7455 481.436 39.3885 480.586 39.0825C479.736 38.7765 478.478 38.4705 476.812 38.1645C474.024 37.6885 471.831 37.1105 470.233 36.4305C468.669 35.7165 467.547 34.8495 466.867 33.8295C466.187 32.7755 465.847 31.4495 465.847 29.8515C465.847 27.2675 466.833 25.1935 468.805 23.6295C470.811 22.0655 473.667 21.2835 477.373 21.2835C480.909 21.2835 483.663 22.1335 485.635 23.8335C487.641 25.4995 488.848 27.7095 489.256 30.4635L482.626 30.7695C482.388 29.3415 481.81 28.2365 480.892 27.4545C479.974 26.6725 478.784 26.2815 477.322 26.2815C475.792 26.2815 474.619 26.5875 473.803 27.1995C473.021 27.8115 472.63 28.6275 472.63 29.6475C472.63 30.3615 472.8 30.9565 473.14 31.4325C473.514 31.9085 474.092 32.2995 474.874 32.6055C475.656 32.8775 476.761 33.1325 478.189 33.3705C481.045 33.8125 483.289 34.3905 484.921 35.1045C486.587 35.7845 487.777 36.6515 488.491 37.7055C489.205 38.7255 489.562 40.0175 489.562 41.5815C489.562 44.1655 488.491 46.1715 486.349 47.5995C484.241 49.0275 481.419 49.7415 477.883 49.7415Z" fill="#3B82F6"/>
<path d="M449.363 49.7415C446.677 49.7415 444.331 49.1635 442.325 48.0075C440.319 46.8175 438.755 45.1515 437.633 43.0095C436.545 40.8675 436.001 38.3685 436.001 35.5125C436.001 32.6905 436.545 30.2085 437.633 28.0665C438.755 25.8905 440.302 24.2245 442.274 23.0685C444.28 21.8785 446.592 21.2835 449.21 21.2835C451.794 21.2835 454.055 21.8615 455.993 23.0175C457.965 24.1735 459.478 25.8565 460.532 28.0665C461.62 30.2765 462.164 32.8775 462.164 35.8695V37.3485H442.784C442.886 39.6945 443.515 41.4795 444.671 42.7035C445.861 43.9275 447.442 44.5395 449.414 44.5395C450.876 44.5395 452.083 44.2165 453.035 43.5705C453.987 42.9245 454.667 41.9895 455.075 40.7655L461.756 41.1735C461.042 43.8255 459.58 45.9165 457.37 47.4465C455.16 48.9765 452.491 49.7415 449.363 49.7415ZM455.381 32.9625C455.245 30.8205 454.633 29.2055 453.545 28.1175C452.457 26.9955 451.012 26.4345 449.21 26.4345C447.442 26.4345 445.98 26.9955 444.824 28.1175C443.702 29.2395 443.022 30.8545 442.784 32.9625H455.381Z" fill="#3B82F6"/>
<path d="M427.878 49.1295C425.158 49.1295 423.152 48.5005 421.86 47.2425C420.602 45.9845 419.973 44.0125 419.973 41.3265V15.5205H426.501V40.7145C426.501 41.9385 426.756 42.8055 427.266 43.3155C427.81 43.8255 428.677 44.0805 429.867 44.0805H433.692V49.1295H427.878ZM415.689 21.8955H433.692V26.9445H415.689V21.8955Z" fill="#3B82F6"/>
<path d="M405.761 21.8955H412.289V49.1295H405.761V21.8955ZM405.659 12.4605H412.442V18.2745H405.659V12.4605Z" fill="#3B82F6"/>
<path d="M389.99 49.7415C387.372 49.7415 385.128 49.3675 383.258 48.6195C381.422 47.8375 379.994 46.7495 378.974 45.3555C377.988 43.9615 377.427 42.3635 377.291 40.5615L383.972 40.2555C384.21 41.7175 384.805 42.8395 385.757 43.6215C386.743 44.3695 388.154 44.7435 389.99 44.7435C391.554 44.7435 392.761 44.5055 393.611 44.0295C394.461 43.5195 394.886 42.7375 394.886 41.6835C394.886 41.0715 394.733 40.5615 394.427 40.1535C394.121 39.7455 393.543 39.3885 392.693 39.0825C391.843 38.7765 390.585 38.4705 388.919 38.1645C386.131 37.6885 383.938 37.1105 382.34 36.4305C380.776 35.7165 379.654 34.8495 378.974 33.8295C378.294 32.7755 377.954 31.4495 377.954 29.8515C377.954 27.2675 378.94 25.1935 380.912 23.6295C382.918 22.0655 385.774 21.2835 389.48 21.2835C393.016 21.2835 395.77 22.1335 397.742 23.8335C399.748 25.4995 400.955 27.7095 401.363 30.4635L394.733 30.7695C394.495 29.3415 393.917 28.2365 392.999 27.4545C392.081 26.6725 390.891 26.2815 389.429 26.2815C387.899 26.2815 386.726 26.5875 385.91 27.1995C385.128 27.8115 384.737 28.6275 384.737 29.6475C384.737 30.3615 384.907 30.9565 385.247 31.4325C385.621 31.9085 386.199 32.2995 386.981 32.6055C387.763 32.8775 388.868 33.1325 390.296 33.3705C393.152 33.8125 395.396 34.3905 397.028 35.1045C398.694 35.7845 399.884 36.6515 400.598 37.7055C401.312 38.7255 401.669 40.0175 401.669 41.5815C401.669 44.1655 400.598 46.1715 398.456 47.5995C396.348 49.0275 393.526 49.7415 389.99 49.7415Z" fill="#3B82F6"/>
<path d="M362.78 49.7415C360.91 49.7415 359.261 49.3335 357.833 48.5175C356.405 47.7015 355.3 46.5625 354.518 45.1005L354.365 49.1295H348.143V12.9195H354.671V25.7715C355.419 24.4455 356.507 23.3745 357.935 22.5585C359.397 21.7085 361.012 21.2835 362.78 21.2835C365.092 21.2835 367.115 21.8785 368.849 23.0685C370.583 24.2245 371.909 25.8735 372.827 28.0155C373.779 30.1575 374.255 32.6565 374.255 35.5125C374.255 38.3685 373.779 40.8675 372.827 43.0095C371.909 45.1515 370.583 46.8175 368.849 48.0075C367.115 49.1635 365.092 49.7415 362.78 49.7415ZM361.301 44.4375C363.171 44.4375 364.667 43.6555 365.789 42.0915C366.911 40.4935 367.472 38.3005 367.472 35.5125C367.472 32.7245 366.911 30.5485 365.789 28.9845C364.701 27.3865 363.222 26.5875 361.352 26.5875C359.958 26.5875 358.751 26.9445 357.731 27.6585C356.745 28.3385 355.98 29.3585 355.436 30.7185C354.926 32.0445 354.671 33.6425 354.671 35.5125C354.671 37.3485 354.926 38.9465 355.436 40.3065C355.98 41.6325 356.745 42.6525 357.731 43.3665C358.717 44.0805 359.907 44.4375 361.301 44.4375Z" fill="#3B82F6"/>
<path d="M331.242 49.7415C328.556 49.7415 326.21 49.1635 324.204 48.0075C322.198 46.8175 320.634 45.1515 319.512 43.0095C318.424 40.8675 317.88 38.3685 317.88 35.5125C317.88 32.6905 318.424 30.2085 319.512 28.0665C320.634 25.8905 322.181 24.2245 324.153 23.0685C326.159 21.8785 328.471 21.2835 331.089 21.2835C333.673 21.2835 335.934 21.8615 337.872 23.0175C339.844 24.1735 341.357 25.8565 342.411 28.0665C343.499 30.2765 344.043 32.8775 344.043 35.8695V37.3485H324.663C324.765 39.6945 325.394 41.4795 326.55 42.7035C327.74 43.9275 329.321 44.5395 331.293 44.5395C332.755 44.5395 333.962 44.2165 334.914 43.5705C335.866 42.9245 336.546 41.9895 336.954 40.7655L343.635 41.1735C342.921 43.8255 341.459 45.9165 339.249 47.4465C337.039 48.9765 334.37 49.7415 331.242 49.7415ZM337.26 32.9625C337.124 30.8205 336.512 29.2055 335.424 28.1175C334.336 26.9955 332.891 26.4345 331.089 26.4345C329.321 26.4345 327.859 26.9955 326.703 28.1175C325.581 29.2395 324.901 30.8545 324.663 32.9625H337.26Z" fill="#3B82F6"/>
<path d="M271.743 12.9195H278.781L285.411 39.9495L292.041 12.9195H298.212L304.944 39.9495L311.523 12.9195H318.51L308.871 49.1295H301.476L295.152 24.3435L288.828 49.1295H281.484L271.743 12.9195Z" fill="#3B82F6"/>
<path d="M252.687 49.1295C249.967 49.1295 247.961 48.5005 246.669 47.2425C245.411 45.9845 244.782 44.0125 244.782 41.3265V15.5205H251.31V40.7145C251.31 41.9385 251.565 42.8055 252.075 43.3155C252.619 43.8255 253.486 44.0805 254.676 44.0805H258.501V49.1295H252.687ZM240.498 21.8955H258.501V26.9445H240.498V21.8955Z" fill="#3B82F6"/>
<path d="M222.203 21.8955H228.323L228.578 29.4435L228.017 29.3415C228.425 26.7575 229.19 24.8705 230.312 23.6805C231.434 22.4905 232.998 21.8955 235.004 21.8955H237.503V27.5055H234.953C233.525 27.5055 232.352 27.7095 231.434 28.1175C230.55 28.5255 229.87 29.1715 229.394 30.0555C228.952 30.9395 228.731 32.0615 228.731 33.4215V49.1295H222.203V21.8955Z" fill="#3B82F6"/>
<path d="M204.357 49.7415C201.671 49.7415 199.325 49.1635 197.319 48.0075C195.313 46.8175 193.749 45.1515 192.627 43.0095C191.505 40.8675 190.944 38.3685 190.944 35.5125C190.944 32.6565 191.505 30.1575 192.627 28.0155C193.749 25.8735 195.313 24.2245 197.319 23.0685C199.325 21.8785 201.671 21.2835 204.357 21.2835C207.009 21.2835 209.338 21.8785 211.344 23.0685C213.384 24.2245 214.948 25.8735 216.036 28.0155C217.158 30.1575 217.719 32.6565 217.719 35.5125C217.719 38.3685 217.158 40.8675 216.036 43.0095C214.948 45.1515 213.384 46.8175 211.344 48.0075C209.338 49.1635 207.009 49.7415 204.357 49.7415ZM204.357 44.4375C206.465 44.4375 208.097 43.6555 209.253 42.0915C210.409 40.5275 210.987 38.3345 210.987 35.5125C210.987 32.7245 210.409 30.5485 209.253 28.9845C208.097 27.3865 206.465 26.5875 204.357 26.5875C202.249 26.5875 200.617 27.3695 199.461 28.9335C198.305 30.4975 197.727 32.6905 197.727 35.5125C197.727 38.3345 198.305 40.5275 199.461 42.0915C200.617 43.6555 202.249 44.4375 204.357 44.4375Z" fill="#3B82F6"/>
<path d="M161.796 21.8955H168.069L168.222 27.7095L167.559 27.4035C168.205 25.4315 169.31 23.9185 170.874 22.8645C172.438 21.8105 174.257 21.2835 176.331 21.2835C178.813 21.2835 180.921 21.9125 182.655 23.1705C184.423 24.3945 185.732 26.0945 186.582 28.2705C187.466 30.4125 187.908 32.8265 187.908 35.5125C187.908 38.1985 187.466 40.6295 186.582 42.8055C185.732 44.9475 184.423 46.6475 182.655 47.9055C180.921 49.1295 178.796 49.7415 176.28 49.7415C174.92 49.7415 173.645 49.5035 172.455 49.0275C171.299 48.5515 170.296 47.8715 169.446 46.9875C168.63 46.0695 168.052 45.0325 167.712 43.8765L168.324 43.3665V56.7795H161.796V21.8955ZM174.75 44.4375C176.722 44.4375 178.269 43.6555 179.391 42.0915C180.547 40.4935 181.125 38.3005 181.125 35.5125C181.125 32.7245 180.547 30.5485 179.391 28.9845C178.269 27.3865 176.722 26.5875 174.75 26.5875C173.424 26.5875 172.268 26.9275 171.282 27.6075C170.33 28.2875 169.599 29.2905 169.089 30.6165C168.579 31.9425 168.324 33.5745 168.324 35.5125C168.324 37.4505 168.579 39.0995 169.089 40.4595C169.599 41.7855 170.33 42.7885 171.282 43.4685C172.234 44.1145 173.39 44.4375 174.75 44.4375Z" fill="#3B82F6"/>
<path d="M117.921 21.8955H123.837L124.041 28.5765L123.429 28.2705C123.735 26.8425 124.262 25.6015 125.01 24.5475C125.792 23.4935 126.727 22.6945 127.815 22.1505C128.937 21.5725 130.161 21.2835 131.487 21.2835C133.765 21.2835 135.618 21.9295 137.046 23.2215C138.508 24.5135 139.426 26.3155 139.8 28.6275H138.933C139.375 26.2815 140.31 24.4795 141.738 23.2215C143.166 21.9295 144.985 21.2835 147.195 21.2835C149.065 21.2835 150.68 21.6915 152.04 22.5075C153.4 23.2895 154.437 24.4625 155.151 26.0265C155.899 27.5565 156.273 29.4265 156.273 31.6365V49.1295H149.745V33.3195C149.745 31.0755 149.354 29.3925 148.572 28.2705C147.824 27.1485 146.668 26.5875 145.104 26.5875C144.05 26.5875 143.149 26.8595 142.401 27.4035C141.653 27.9475 141.075 28.7465 140.667 29.8005C140.293 30.8205 140.106 32.0615 140.106 33.5235V49.1295H134.037V33.5235C134.037 31.2115 133.68 29.4775 132.966 28.3215C132.252 27.1655 131.096 26.5875 129.498 26.5875C128.444 26.5875 127.543 26.8595 126.795 27.4035C126.047 27.9475 125.469 28.7465 125.061 29.8005C124.653 30.8545 124.449 32.0955 124.449 33.5235V49.1295H117.921V21.8955Z" fill="#3B82F6"/>
<path d="M105.086 12.9195H111.716V49.1295H105.086V12.9195Z" fill="#3B82F6"/>
</g>
<defs>
<clipPath id="clip0_4689_132">
<rect width="489.562" height="67.24" fill="white"/>
</clipPath>
</defs>
</svg>
