<svg width="356" height="46" viewBox="0 0 356 46" fill="none" xmlns="http://www.w3.org/2000/svg">
<path d="M18.3813 2.02212C18.111 1.01328 17.0741 0.414589 16.0652 0.684906C15.0564 0.955223 14.4577 1.99218 14.728 3.00102L16.019 7.81908C16.2893 8.82792 17.3263 9.42661 18.3351 9.15629C19.344 8.88598 19.9427 7.84902 19.6723 6.84018L18.3813 2.02212Z" fill="#3B82F6"/>
<path d="M5.99574 10.4179C5.0937 9.89149 3.93568 10.196 3.40923 11.098C2.88278 12 3.18725 13.1581 4.08929 13.6845L8.63733 16.3389C9.53937 16.8653 10.6974 16.5608 11.2238 15.6588C11.7503 14.7568 11.4458 13.5987 10.5438 13.0723L5.99574 10.4179Z" fill="#3B82F6"/>
<path d="M32.9365 5.95492C33.4545 5.04798 33.1391 3.89287 32.2322 3.37491C31.3253 2.85695 30.1701 3.17228 29.6522 4.07922L27.0406 8.65197C26.5227 9.55891 26.838 10.714 27.7449 11.232C28.6519 11.7499 29.807 11.4346 30.325 10.5277L32.9365 5.95492Z" fill="#3B82F6"/>
<path d="M23.5248 19.1686C20.767 18.853 19.0715 21.9707 20.6554 24.1378L35.4145 44.3312C37.1026 46.641 40.7357 45.6685 41.0441 42.8242L42.0771 33.2979L49.7169 27.6336C51.9994 25.9414 51.027 22.3152 48.2039 21.9922L23.5248 19.1686Z" fill="#3B82F6"/>
<path d="M6.91004 23.794L2.13698 25.0729C1.12814 25.3432 0.529453 26.3802 0.79977 27.389C1.07009 28.3979 2.10705 28.9966 3.11589 28.7262L7.88894 27.4473C8.89778 27.177 9.49647 26.14 9.22615 25.1312C8.95583 24.1223 7.91888 23.5237 6.91004 23.794Z" fill="#3B82F6"/>
<path d="M16.3967 34.9157C16.9147 34.0087 16.5993 32.8536 15.6924 32.3357C14.7855 31.8177 13.6303 32.133 13.1124 33.04L10.5008 37.6127C9.98287 38.5197 10.2982 39.6748 11.2051 40.1927C12.1121 40.7107 13.2672 40.3954 13.7852 39.4884L16.3967 34.9157Z" fill="#3B82F6"/>
<path d="M347.199 34.3644C345.252 34.3644 343.583 34.0863 342.193 33.5301C340.828 32.9486 339.766 32.1396 339.007 31.103C338.274 30.0664 337.857 28.8781 337.756 27.5381L342.724 27.3106C342.901 28.3977 343.343 29.2321 344.051 29.8136C344.784 30.3698 345.834 30.6479 347.199 30.6479C348.362 30.6479 349.259 30.4709 349.891 30.117C350.524 29.7377 350.84 29.1562 350.84 28.3725C350.84 27.9174 350.726 27.5381 350.498 27.2347C350.271 26.9313 349.841 26.6659 349.209 26.4383C348.577 26.2108 347.641 25.9833 346.402 25.7557C344.329 25.4018 342.699 24.9719 341.51 24.4663C340.347 23.9354 339.513 23.2907 339.007 22.5322C338.502 21.7484 338.249 20.7624 338.249 19.5741C338.249 17.6526 338.982 16.1104 340.448 14.9474C341.94 13.7844 344.064 13.2029 346.82 13.2029C349.449 13.2029 351.497 13.835 352.963 15.0991C354.455 16.3379 355.353 17.9813 355.656 20.0292L350.726 20.2567C350.549 19.1949 350.119 18.3732 349.436 17.7917C348.754 17.2102 347.869 16.9194 346.782 16.9194C345.644 16.9194 344.772 17.147 344.165 17.6021C343.583 18.0572 343.293 18.6639 343.293 19.4224C343.293 19.9534 343.419 20.3958 343.672 20.7498C343.95 21.1037 344.38 21.3945 344.961 21.622C345.543 21.8243 346.365 22.0139 347.426 22.1909C349.55 22.5195 351.219 22.9493 352.432 23.4803C353.671 23.9859 354.556 24.6306 355.087 25.4144C355.618 26.1729 355.883 27.1336 355.883 28.2966C355.883 30.2181 355.087 31.7098 353.494 32.7716C351.927 33.8335 349.828 34.3644 347.199 34.3644Z" fill="#3B82F6"/>
<path d="M325.992 34.3644C323.995 34.3644 322.25 33.9346 320.759 33.075C319.267 32.1901 318.104 30.9513 317.27 29.3585C316.461 27.7657 316.056 25.9074 316.056 23.7837C316.056 21.6852 316.461 19.8396 317.27 18.2468C318.104 16.6287 319.254 15.3899 320.721 14.5302C322.212 13.6454 323.932 13.2029 325.878 13.2029C327.8 13.2029 329.481 13.6327 330.922 14.4923C332.389 15.3519 333.514 16.6034 334.298 18.2468C335.107 19.8902 335.511 21.8243 335.511 24.0491V25.1489H321.1C321.176 26.8934 321.644 28.2208 322.503 29.1309C323.388 30.0411 324.564 30.4962 326.03 30.4962C327.117 30.4962 328.015 30.256 328.723 29.7756C329.431 29.2953 329.936 28.6 330.24 27.6898L335.208 27.9932C334.677 29.9653 333.59 31.5201 331.946 32.6579C330.303 33.7956 328.318 34.3644 325.992 34.3644ZM330.467 21.8875C330.366 20.2947 329.911 19.0938 329.102 18.2847C328.293 17.4504 327.218 17.0332 325.878 17.0332C324.564 17.0332 323.477 17.4504 322.617 18.2847C321.783 19.119 321.277 20.32 321.1 21.8875H330.467Z" fill="#3B82F6"/>
<path d="M310.015 33.9093C307.993 33.9093 306.501 33.4416 305.54 32.5062C304.605 31.5707 304.137 30.1043 304.137 28.107V8.91751H308.992V27.6519C308.992 28.5621 309.181 29.2068 309.56 29.586C309.965 29.9653 310.61 30.1549 311.494 30.1549H314.339V33.9093H310.015ZM300.952 13.658H314.339V17.4125H300.952V13.658Z" fill="#3B82F6"/>
<path d="M293.569 13.658H298.423V33.9093H293.569V13.658ZM293.493 6.64208H298.537V10.9654H293.493V6.64208Z" fill="#3B82F6"/>
<path d="M281.841 34.3644C279.895 34.3644 278.226 34.0863 276.836 33.5301C275.47 32.9486 274.408 32.1396 273.65 31.103C272.917 30.0664 272.5 28.8781 272.398 27.5381L277.366 27.3106C277.543 28.3977 277.986 29.2321 278.694 29.8136C279.427 30.3698 280.476 30.6479 281.841 30.6479C283.004 30.6479 283.902 30.4709 284.534 30.117C285.166 29.7377 285.482 29.1562 285.482 28.3725C285.482 27.9174 285.368 27.5381 285.141 27.2347C284.913 26.9313 284.484 26.6659 283.851 26.4383C283.219 26.2108 282.284 25.9833 281.045 25.7557C278.972 25.4018 277.341 24.9719 276.153 24.4663C274.99 23.9354 274.156 23.2907 273.65 22.5322C273.144 21.7484 272.891 20.7624 272.891 19.5741C272.891 17.6526 273.625 16.1104 275.091 14.9474C276.583 13.7844 278.706 13.2029 281.462 13.2029C284.092 13.2029 286.14 13.835 287.606 15.0991C289.098 16.3379 289.995 17.9813 290.298 20.0292L285.368 20.2567C285.191 19.1949 284.762 18.3732 284.079 17.7917C283.396 17.2102 282.511 16.9194 281.424 16.9194C280.287 16.9194 279.414 17.147 278.808 17.6021C278.226 18.0572 277.935 18.6639 277.935 19.4224C277.935 19.9534 278.062 20.3958 278.315 20.7498C278.593 21.1037 279.022 21.3945 279.604 21.622C280.185 21.8243 281.007 22.0139 282.069 22.1909C284.193 22.5195 285.861 22.9493 287.075 23.4803C288.314 23.9859 289.199 24.6306 289.73 25.4144C290.261 26.1729 290.526 27.1336 290.526 28.2966C290.526 30.2181 289.73 31.7098 288.137 32.7716C286.569 33.8335 284.471 34.3644 281.841 34.3644Z" fill="#3B82F6"/>
<path d="M261.608 34.3644C260.218 34.3644 258.992 34.061 257.93 33.4543C256.868 32.8475 256.046 32.0005 255.465 30.9134L255.351 33.9093H250.724V6.9834H255.578V16.5402C256.135 15.5542 256.944 14.7578 258.006 14.151C259.093 13.5189 260.294 13.2029 261.608 13.2029C263.327 13.2029 264.832 13.6454 266.121 14.5302C267.411 15.3899 268.397 16.6161 269.079 18.2089C269.787 19.8017 270.141 21.6599 270.141 23.7837C270.141 25.9074 269.787 27.7657 269.079 29.3585C268.397 30.9513 267.411 32.1901 266.121 33.075C264.832 33.9346 263.327 34.3644 261.608 34.3644ZM260.508 30.4203C261.899 30.4203 263.011 29.8388 263.846 28.6758C264.68 27.4876 265.097 25.8568 265.097 23.7837C265.097 21.7105 264.68 20.0924 263.846 18.9294C263.037 17.7411 261.937 17.147 260.546 17.147C259.51 17.147 258.612 17.4125 257.854 17.9434C257.121 18.449 256.552 19.2075 256.147 20.2188C255.768 21.2048 255.578 22.3931 255.578 23.7837C255.578 25.1489 255.768 26.3372 256.147 27.3485C256.552 28.3345 257.121 29.093 257.854 29.6239C258.587 30.1549 259.472 30.4203 260.508 30.4203Z" fill="#3B82F6"/>
<path d="M238.157 34.3644C236.159 34.3644 234.415 33.9346 232.923 33.075C231.432 32.1901 230.269 30.9513 229.434 29.3585C228.625 27.7657 228.221 25.9074 228.221 23.7837C228.221 21.6852 228.625 19.8396 229.434 18.2468C230.269 16.6287 231.419 15.3899 232.885 14.5302C234.377 13.6454 236.096 13.2029 238.043 13.2029C239.964 13.2029 241.646 13.6327 243.087 14.4923C244.553 15.3519 245.678 16.6034 246.462 18.2468C247.271 19.8902 247.676 21.8243 247.676 24.0491V25.1489H233.265C233.34 26.8934 233.808 28.2208 234.668 29.1309C235.553 30.0411 236.728 30.4962 238.195 30.4962C239.282 30.4962 240.179 30.256 240.887 29.7756C241.595 29.2953 242.101 28.6 242.404 27.6898L247.372 27.9932C246.841 29.9653 245.754 31.5201 244.111 32.6579C242.467 33.7956 240.483 34.3644 238.157 34.3644ZM242.632 21.8875C242.531 20.2947 242.076 19.0938 241.267 18.2847C240.457 17.4504 239.383 17.0332 238.043 17.0332C236.728 17.0332 235.641 17.4504 234.782 18.2847C233.947 19.119 233.442 20.32 233.265 21.8875H242.632Z" fill="#3B82F6"/>
<path d="M193.912 6.9834H199.146L204.076 27.083L209.006 6.9834H213.595L218.601 27.083L223.493 6.9834H228.688L221.521 33.9093H216.022L211.319 15.4783L206.617 33.9093H201.156L193.912 6.9834Z" fill="#3B82F6"/>
<path d="M179.743 33.9093C177.72 33.9093 176.228 33.4416 175.268 32.5062C174.332 31.5707 173.864 30.1043 173.864 28.107V8.91751H178.719V27.6519C178.719 28.5621 178.908 29.2068 179.287 29.586C179.692 29.9653 180.337 30.1549 181.222 30.1549H184.066V33.9093H179.743ZM170.679 13.658H184.066V17.4125H170.679V13.658Z" fill="#3B82F6"/>
<path d="M157.074 13.658H161.625L161.815 19.2707L161.398 19.1949C161.701 17.2734 162.27 15.8702 163.104 14.9853C163.938 14.1004 165.101 13.658 166.593 13.658H168.451V17.8296H166.555C165.493 17.8296 164.621 17.9813 163.938 18.2847C163.281 18.5881 162.775 19.0685 162.421 19.7258C162.093 20.3832 161.928 21.2175 161.928 22.2288V33.9093H157.074V13.658Z" fill="#3B82F6"/>
<path d="M143.804 34.3644C141.807 34.3644 140.062 33.9346 138.571 33.075C137.079 32.1901 135.916 30.9513 135.082 29.3585C134.247 27.7657 133.83 25.9074 133.83 23.7837C133.83 21.6599 134.247 19.8017 135.082 18.2089C135.916 16.6161 137.079 15.3899 138.571 14.5302C140.062 13.6454 141.807 13.2029 143.804 13.2029C145.776 13.2029 147.508 13.6454 149 14.5302C150.517 15.3899 151.68 16.6161 152.489 18.2089C153.323 19.8017 153.74 21.6599 153.74 23.7837C153.74 25.9074 153.323 27.7657 152.489 29.3585C151.68 30.9513 150.517 32.1901 149 33.075C147.508 33.9346 145.776 34.3644 143.804 34.3644ZM143.804 30.4203C145.372 30.4203 146.585 29.8388 147.445 28.6758C148.304 27.5128 148.734 25.8821 148.734 23.7837C148.734 21.7105 148.304 20.0924 147.445 18.9294C146.585 17.7411 145.372 17.147 143.804 17.147C142.237 17.147 141.023 17.7285 140.163 18.8915C139.304 20.0545 138.874 21.6852 138.874 23.7837C138.874 25.8821 139.304 27.5128 140.163 28.6758C141.023 29.8388 142.237 30.4203 143.804 30.4203Z" fill="#3B82F6"/>
<path d="M112.155 13.658H116.82L116.934 17.9813L116.441 17.7538C116.921 16.2874 117.743 15.1623 118.906 14.3785C120.069 13.5948 121.421 13.2029 122.964 13.2029C124.809 13.2029 126.377 13.6706 127.666 14.6061C128.981 15.5163 129.954 16.7804 130.586 18.3985C131.244 19.9913 131.572 21.7863 131.572 23.7837C131.572 25.781 131.244 27.5887 130.586 29.2068C129.954 30.7996 128.981 32.0637 127.666 32.9992C126.377 33.9093 124.797 34.3644 122.926 34.3644C121.914 34.3644 120.966 34.1874 120.081 33.8335C119.222 33.4795 118.476 32.9739 117.844 32.3165C117.237 31.6339 116.807 30.8628 116.554 30.0032L117.01 29.6239V39.5979H112.155V13.658ZM121.788 30.4203C123.254 30.4203 124.405 29.8388 125.239 28.6758C126.099 27.4876 126.528 25.8568 126.528 23.7837C126.528 21.7105 126.099 20.0924 125.239 18.9294C124.405 17.7411 123.254 17.147 121.788 17.147C120.802 17.147 119.942 17.3998 119.209 17.9055C118.501 18.4111 117.958 19.157 117.578 20.143C117.199 21.129 117.01 22.3426 117.01 23.7837C117.01 25.2248 117.199 26.451 117.578 27.4623C117.958 28.4483 118.501 29.1941 119.209 29.6998C119.917 30.1802 120.777 30.4203 121.788 30.4203Z" fill="#3B82F6"/>
<path d="M79.5298 13.658H83.929L84.0806 18.626L83.6256 18.3985C83.8531 17.3366 84.245 16.4138 84.8012 15.63C85.3827 14.8463 86.078 14.2521 86.887 13.8476C87.7213 13.4178 88.6315 13.2029 89.6175 13.2029C91.3115 13.2029 92.6894 13.6833 93.7512 14.644C94.8384 15.6048 95.521 16.9447 95.7991 18.6639H95.1544C95.4831 16.9194 96.1784 15.5795 97.2402 14.644C98.3021 13.6833 99.6547 13.2029 101.298 13.2029C102.689 13.2029 103.89 13.5063 104.901 14.1131C105.912 14.6946 106.683 15.5668 107.214 16.7298C107.77 17.8675 108.049 19.2581 108.049 20.9015V33.9093H103.194V22.1529C103.194 20.4843 102.904 19.2328 102.322 18.3985C101.766 17.5642 100.906 17.147 99.7432 17.147C98.9594 17.147 98.2895 17.3493 97.7332 17.7538C97.177 18.1583 96.7472 18.7524 96.4438 19.5362C96.1657 20.2947 96.0267 21.2175 96.0267 22.3046V33.9093H91.5137V22.3046C91.5137 20.5854 91.2483 19.296 90.7173 18.4364C90.1864 17.5768 89.3268 17.147 88.1385 17.147C87.3547 17.147 86.6848 17.3493 86.1285 17.7538C85.5723 18.1583 85.1425 18.7524 84.8391 19.5362C84.5357 20.32 84.384 21.2428 84.384 22.3046V33.9093H79.5298V13.658Z" fill="#3B82F6"/>
<path d="M69.9858 6.9834H74.9159V33.9093H69.9858V6.9834Z" fill="#3B82F6"/>
</svg>
